<svg xmlns="http://www.w3.org/2000/svg" width="702.014" height="194.556" viewBox="0 0 185.741 51.476"><path d="M50.16-44.088h25.784v-42.768h18.128V-1.32Zm-1.408 0H22.968V-1.32H4.84v-85.536zm184.36-42.504v17.864h-87.824v-17.864zm-.088 85.272-88-.088.264-52.096h32.472v17.952h-13.904v16.28h69.168zM350.592-48.4H332.2q0-8.976-5.896-16.28-6.952-8.272-18.04-8.272h-22.176v-18.304h21.648q17.688 0 30.272 12.496 12.584 12.408 12.584 30.36zm22.264 46.64h-86.768v-16.28h62.48q-7.04-8.096-18.128-8.096h-44.352v-18.48H330q17.688 0 30.272 12.496 12.584 12.408 12.584 30.36zM495.352-44v-42.944h18.304V-44q0 18.216-12.32 30.536T470.8-1.144q-17.688 0-30.36-12.408-12.584-12.408-12.584-30.624v-42.768h19.536V-44q0 8.536 5.984 15.84 7.04 8.712 17.952 8.712 9.768 0 16.896-7.128T495.352-44z" aria-label="N E B U" style="font-size:88px;font-family:TRON,TRON_MSFontService,sans-serif;fill:#6f4df9" transform="translate(59.873 36.92) scale(.23287)"/><path d="M139.087 133.097h4.364v10.79h-4.364z" style="fill:#6f4df9;stroke:#fff;stroke-width:0;stroke-linecap:square;stroke-linejoin:round" transform="translate(4.074 -93.308) scale(.88013)"/><path d="M151.292 135.104h4.869v2.514h-4.869z" style="fill:#6f4df9;stroke:#fff;stroke-width:0;stroke-linecap:square;stroke-linejoin:round;stroke-opacity:0" transform="translate(4.074 -93.308) scale(.88013)"/><path d="M98.998 56.075h36.603c.279 0 .503.224.503.503V93.18a.502.502 0 0 1-.503.503H98.998a.502.502 0 0 1-.503-.503V56.578c0-.279.224-.503.503-.503z" style="fill:none;stroke:#6f4df9;stroke-width:1.71227;stroke-linecap:square;stroke-dashoffset:57.9987" transform="rotate(45 114.67 -41.736) scale(.88013)"/><path d="M108.29 65.622h18.02c.137 0 .247.11.247.247v18.02c0 .137-.11.248-.247.248h-18.02a.247.247 0 0 1-.248-.248V65.87c0-.137.11-.247.248-.247z" style="fill:none;stroke:#6f4df9;stroke-width:1.71227;stroke-linecap:square;stroke-dashoffset:57.9987" transform="rotate(45 114.67 -41.736) scale(.88013)"/><g style="stroke-width:0;stroke-dasharray:none"><path d="m325.606 229.393-150.004-150a14.997 14.997 0 0 0-21.213.001l-149.996 150c-5.858 5.858-5.858 15.355 0 21.213 5.857 5.857 15.355 5.858 21.213 0l139.39-139.393 139.397 139.393A14.953 14.953 0 0 0 315 255a14.95 14.95 0 0 0 10.607-4.394c5.857-5.858 5.857-15.355-.001-21.213z" style="fill:#ddd4ff;fill-opacity:1;stroke-width:0;stroke-dasharray:none" transform="rotate(-90 24.633 10.42) scale(.05307)"/><path d="m325.606 229.393-150.004-150a14.997 14.997 0 0 0-21.213.001l-149.996 150c-5.858 5.858-5.858 15.355 0 21.213 5.857 5.857 15.355 5.858 21.213 0l139.39-139.393 139.397 139.393A14.953 14.953 0 0 0 315 255a14.95 14.95 0 0 0 10.607-4.394c5.857-5.858 5.857-15.355-.001-21.213z" style="fill:#ddd4ff;fill-opacity:1;stroke-width:0;stroke-dasharray:none" transform="matrix(0 -.05307 -.05307 0 46.736 35.056)"/></g><path d="m-1870.885-175.459-78.843-78.841a7.882 7.882 0 0 0-11.15 0l-78.839 78.841a7.884 7.884 0 1 0 11.15 11.15l73.264-73.266 73.269 73.266a7.86 7.86 0 0 0 5.575 2.31 7.884 7.884 0 0 0 5.574-13.46z" style="fill:#6f4df9;fill-opacity:1;stroke-width:14.924;stroke-dasharray:none" transform="translate(108.438 17.283) scale(.03987)"/><path d="m-1870.885-90.482-78.843-78.841a7.882 7.882 0 0 0-11.15 0l-78.839 78.841a7.884 7.884 0 0 0 11.15 11.15l73.264-73.266 73.269 73.266a7.86 7.86 0 0 0 5.575 2.31 7.884 7.884 0 0 0 5.574-13.46z" style="fill:#6f4df9;fill-opacity:1;stroke-width:14.924;stroke-dasharray:none" transform="translate(108.438 17.283) scale(.03987)"/><path d="m-1870.885-175.459-78.843-78.841a7.882 7.882 0 0 0-11.15 0l-78.839 78.841a7.884 7.884 0 1 0 11.15 11.15l73.264-73.266 73.269 73.266a7.86 7.86 0 0 0 5.575 2.31 7.884 7.884 0 0 0 5.574-13.46z" style="fill:#6f4df9;fill-opacity:1;stroke-width:14.924;stroke-dasharray:none" transform="matrix(.03987 0 0 -.03987 108.444 36.138)"/><path d="m-1870.885-90.482-78.843-78.841a7.882 7.882 0 0 0-11.15 0l-78.839 78.841a7.884 7.884 0 0 0 11.15 11.15l73.264-73.266 73.269 73.266a7.86 7.86 0 0 0 5.575 2.31 7.884 7.884 0 0 0 5.574-13.46z" style="fill:#6f4df9;fill-opacity:1;stroke-width:14.924;stroke-dasharray:none" transform="matrix(.03987 0 0 -.03987 108.444 36.138)"/><g style="stroke-width:1.00157;stroke-dasharray:none"><g style="stroke-width:1.00157;stroke-dasharray:none"><path d="m-1870.885-175.459-78.843-78.841a7.882 7.882 0 0 0-11.15 0l-78.839 78.841a7.884 7.884 0 1 0 11.15 11.15l73.264-73.266 73.269 73.266a7.86 7.86 0 0 0 5.575 2.31 7.884 7.884 0 0 0 5.574-13.46z" style="fill:#6f4df9;fill-opacity:1;stroke-width:1.00157;stroke-dasharray:none" transform="rotate(90 -32.177 72.078) scale(.03987)"/><path d="m-1870.885-90.482-78.843-78.841a7.882 7.882 0 0 0-11.15 0l-78.839 78.841a7.884 7.884 0 0 0 11.15 11.15l73.264-73.266 73.269 73.266a7.86 7.86 0 0 0 5.575 2.31 7.884 7.884 0 0 0 5.574-13.46z" style="fill:#6f4df9;fill-opacity:1;stroke-width:1.00157;stroke-dasharray:none" transform="rotate(90 -32.177 72.078) scale(.03987)"/></g><g style="stroke-width:1.00157;stroke-dasharray:none"><path d="m-1870.885-175.459-78.843-78.841a7.882 7.882 0 0 0-11.15 0l-78.839 78.841a7.884 7.884 0 1 0 11.15 11.15l73.264-73.266 73.269 73.266a7.86 7.86 0 0 0 5.575 2.31 7.884 7.884 0 0 0 5.574-13.46z" style="fill:#6f4df9;fill-opacity:1;stroke-width:1.00157;stroke-dasharray:none" transform="matrix(0 .03987 .03987 0 21.046 104.262)"/><path d="m-1870.885-90.482-78.843-78.841a7.882 7.882 0 0 0-11.15 0l-78.839 78.841a7.884 7.884 0 0 0 11.15 11.15l73.264-73.266 73.269 73.266a7.86 7.86 0 0 0 5.575 2.31 7.884 7.884 0 0 0 5.574-13.46z" style="fill:#6f4df9;fill-opacity:1;stroke-width:1.00157;stroke-dasharray:none" transform="matrix(0 .03987 .03987 0 21.046 104.262)"/></g></g></svg>